<svg width="31" height="31" fill="none" xmlns="http://www.w3.org/2000/svg"><path d="M10.551 3.158a22.246 22.246 0 0 1 4.56 2.444c.164.112.351.17.54.17a.964.964 0 0 0 .539-.17 22.27 22.27 0 0 1 4.56-2.45.935.935 0 0 0 .592-.879.925.925 0 0 0-.605-.867C17.57.205 13.732.205 10.57 1.406a.944.944 0 0 0-.018 1.752Z" fill="#FFB548"/><path d="M24.159 3.164a.94.94 0 0 0-1.004-.041 40.987 40.987 0 0 0-5.052 3.434.942.942 0 0 0-.064 1.412c3.32 3.16 7.921 12.847 8.977 17.3-2.288-3.867-7.393-12.969-10.731-16.08a.942.942 0 0 0-1.28 0C11.661 12.3 6.574 21.406 4.285 25.28 5.342 20.827 9.93 11.128 13.251 7.97a.933.933 0 0 0-.059-1.412A41.445 41.445 0 0 0 8.14 3.123a.941.941 0 0 0-1.003.04A14.992 14.992 0 0 0 .624 15.507c0 3.598 1.297 7.068 3.661 9.775a14.897 14.897 0 0 0 11.36 5.228c4.395 0 8.537-1.905 11.371-5.233a14.849 14.849 0 0 0 3.65-9.77c0-4.923-2.435-9.535-6.507-12.342Z" fill="#FFB548"/></svg>